<svg xmlns="http://www.w3.org/2000/svg" viewBox="0 0 96 96" role="img" aria-label="UCT">
    <!--
      The Student. Round, attentive eyes under the tree it keeps: one root splitting evenly to four
      leaves, worn like a crown. It remembers every guess and spends the next thousand where they paid.
    -->
    <defs>
        <clipPath id="tile">
            <rect width="96" height="96" rx="18"/>
        </clipPath>
    </defs>
    <rect width="96" height="96" rx="18" fill="#16191d"/>
    <g clip-path="url(#tile)">
        <rect x="12" y="4" width="9" height="9" fill="#7fe0a8"/>
        <rect x="27" y="4" width="9" height="9" fill="#7fe0a8"/>
        <rect x="60" y="4" width="9" height="9" fill="#7fe0a8"/>
        <rect x="75" y="4" width="9" height="9" fill="#7fe0a8"/>
        <rect x="14" y="13" width="20" height="4" fill="#4c9f74"/>
        <rect x="62" y="13" width="20" height="4" fill="#4c9f74"/>
        <rect x="22" y="17" width="4" height="10" fill="#4c9f74"/>
        <rect x="70" y="17" width="4" height="10" fill="#4c9f74"/>
        <rect x="22" y="27" width="52" height="4" fill="#3a7f5c"/>
        <rect x="46" y="31" width="4" height="8" fill="#3a7f5c"/>

        <path d="M4 96V82l20-8h48l20 8v14z" fill="#2b6046"/>
        <path d="M4 96V82l20-8h24v22z" fill="#3a7f5c"/>
        <rect x="40" y="68" width="16" height="10" fill="#22503c"/>

        <rect x="26" y="36" width="44" height="40" fill="#4c9f74"/>
        <rect x="26" y="36" width="44" height="6" fill="#5fbf8a"/>
        <rect x="60" y="42" width="10" height="34" fill="#3a7f5c"/>

        <rect x="31" y="49" width="13" height="13" fill="#e9f2ec"/>
        <rect x="51" y="49" width="13" height="13" fill="#e9f2ec"/>
        <rect x="35" y="53" width="6" height="6" fill="#0e1114"/>
        <rect x="55" y="53" width="6" height="6" fill="#0e1114"/>
        <rect x="38" y="68" width="20" height="4" fill="#22503c"/>
    </g>
</svg>
